# xmcd
#
# Track frame offsets:
#  150
#  897
#  16115
#  29207
#  55112
#  66813
#  83588
#  100277
#  122238
#  142344
#  155590
#
# Disc length: 2529 seconds
#
# Revision: 0
# Processed by: cddbd v1.5.2PL0 Copyright (c) Steve Scherf et al.
# Submitted via: AltoMP3_Maker 3.0
#
DISCID=8b09df0b
DTITLE=Tommy Alverson - Live Again
DYEAR=1900
DGENRE=
TTITLE0=intro
TTITLE1=Anytime, Anywhere
TTITLE2=Texas Me
TTITLE3=Let Me Go Home Whiskey
TTITLE4=Too Much Month (at the End of the Money)
TTITLE5=I Wish I Was Thirty Again
TTITLE6=Tonight I'll Be Stayin' Here with You
TTITLE7=Poncho and Lefty
TTITLE8=Southwestern Pilgrimage
TTITLE9=Boot Heel Drag
TTITLE10=Fallin' off a Log
EXTD=
EXTT0=
EXTT1=
EXTT2=
EXTT3=
EXTT4=
EXTT5=
EXTT6=
EXTT7=
EXTT8=
EXTT9=
EXTT10=
PLAYORDER=
